<svg width="17" height="16" viewBox="0 0 17 16" fill="none" xmlns="http://www.w3.org/2000/svg">
<g clip-path="url(#clip0_192_78)">
<path d="M13.918 2.34667C13.1713 1.6 12.3091 1.02222 11.3313 0.613333C10.3535 0.204444 9.33132 0 8.26465 0C7.19798 0 6.17576 0.204444 5.19798 0.613333C4.2202 1.02222 3.35798 1.6 2.61132 2.34667C1.86465 3.09333 1.28687 3.95555 0.877982 4.93333C0.469093 5.91111 0.264648 6.93333 0.264648 8C0.264648 9.06667 0.469093 10.0889 0.877982 11.0667C1.28687 12.0444 1.86465 12.9067 2.61132 13.6533C3.35798 14.4 4.2202 14.9778 5.19798 15.3867C6.17576 15.7956 7.19798 16 8.26465 16C9.33132 16 10.3535 15.7956 11.3313 15.3867C12.3091 14.9778 13.1713 14.4 13.918 13.6533C14.6646 12.9067 15.2424 12.0444 15.6513 11.0667C16.0602 10.0889 16.2646 9.06667 16.2646 8C16.2646 6.93333 16.0602 5.91111 15.6513 4.93333C15.2424 3.95555 14.6646 3.09333 13.918 2.34667ZM3.73132 13.44C3.83798 12.6933 4.10465 12.0089 4.53132 11.3867C4.95798 10.7644 5.5002 10.2756 6.15798 9.92C6.81576 9.56444 7.51798 9.38667 8.26465 9.38667C8.86909 9.38667 9.44687 9.50222 9.99798 9.73333C10.5491 9.96444 11.038 10.2933 11.4646 10.72C12.2113 11.4667 12.6558 12.3733 12.798 13.44C12.158 13.9378 11.4558 14.3289 10.6913 14.6133C9.92687 14.8978 9.11798 15.04 8.26465 15.04C7.41132 15.04 6.60243 14.8978 5.83798 14.6133C5.07354 14.3289 4.37132 13.9378 3.73132 13.44ZM8.26465 8.42667C7.58909 8.42667 7.01132 8.18667 6.53132 7.70667C6.05132 7.22667 5.81132 6.65778 5.81132 6C5.81132 5.34222 6.05132 4.77333 6.53132 4.29333C7.01132 3.81333 7.58909 3.57333 8.26465 3.57333C8.9402 3.57333 9.51798 3.81333 9.99798 4.29333C10.478 4.77333 10.718 5.34222 10.718 6C10.718 6.65778 10.478 7.22667 9.99798 7.70667C9.51798 8.18667 8.9402 8.42667 8.26465 8.42667ZM13.598 12.64C13.3491 11.6444 12.8691 10.7911 12.158 10.08C11.5891 9.47556 10.9135 9.04889 10.1313 8.8C10.5935 8.48 10.958 8.07111 11.2246 7.57333C11.4913 7.07556 11.6246 6.53333 11.6246 5.94667C11.6246 5.36 11.4735 4.80889 11.1713 4.29333C10.8691 3.77778 10.4602 3.36889 9.94465 3.06667C9.42909 2.76444 8.86909 2.61333 8.26465 2.61333C7.6602 2.61333 7.1002 2.76444 6.58465 3.06667C6.06909 3.36889 5.6602 3.77778 5.35798 4.29333C5.05576 4.80889 4.90465 5.36 4.90465 5.94667C4.90465 6.53333 5.03798 7.07556 5.30465 7.57333C5.57132 8.07111 5.93576 8.48 6.39798 8.8C5.68687 9.04889 5.06465 9.42222 4.53132 9.92C3.71354 10.6667 3.1802 11.5733 2.93132 12.64C2.39798 12 1.9802 11.28 1.67798 10.48C1.37576 9.68 1.22465 8.85333 1.22465 8C1.22465 6.72 1.53576 5.53778 2.15798 4.45333C2.7802 3.36889 3.63354 2.51556 4.71798 1.89333C5.80243 1.27111 6.98465 0.96 8.26465 0.96C9.54465 0.96 10.7269 1.27111 11.8113 1.89333C12.8958 2.51556 13.7491 3.36889 14.3713 4.45333C14.9935 5.53778 15.3046 6.72 15.3046 8C15.3046 8.85333 15.1535 9.68 14.8513 10.48C14.5491 11.28 14.1313 12 13.598 12.64Z" fill="#BACCE1"/>
</g>
<defs>
<clipPath id="clip0_192_78">
<rect width="16.53" height="16" fill="white" transform="matrix(1 0 0 -1 0 16)"/>
</clipPath>
</defs>
</svg>
