<svg width="18" height="16" viewBox="0 0 18 16" fill="none" xmlns="http://www.w3.org/2000/svg">
<g clip-path="url(#clip0_192_84)">
<path d="M14.8848 1.22667H13.4448V0.48C13.4448 0.337777 13.4004 0.222221 13.3115 0.133333C13.2226 0.0444441 13.1071 0 12.9648 0C12.8226 0 12.7071 0.0444441 12.6182 0.133333C12.5293 0.222221 12.4848 0.337777 12.4848 0.48V1.22667H5.44484V0.48C5.44484 0.337777 5.4004 0.222221 5.31151 0.133333C5.22262 0.0444441 5.10707 0 4.96484 0C4.82262 0 4.70707 0.0444441 4.61818 0.133333C4.52929 0.222221 4.48484 0.337777 4.48484 0.48V1.22667H3.04484C2.47595 1.22667 1.98707 1.43111 1.57818 1.84C1.16929 2.24889 0.964844 2.73778 0.964844 3.30667V13.92C0.964844 14.4889 1.16929 14.9778 1.57818 15.3867C1.98707 15.7956 2.47595 16 3.04484 16H14.8848C15.4537 16 15.9426 15.7956 16.3515 15.3867C16.7604 14.9778 16.9648 14.4889 16.9648 13.92V3.30667C16.9648 2.73778 16.7604 2.24889 16.3515 1.84C15.9426 1.43111 15.4537 1.22667 14.8848 1.22667ZM3.04484 2.24H4.48484V2.77333C4.48484 2.88 4.52929 2.98667 4.61818 3.09333C4.70707 3.2 4.82262 3.25333 4.96484 3.25333C5.10707 3.25333 5.22262 3.2 5.31151 3.09333C5.4004 2.98667 5.44484 2.88 5.44484 2.77333V2.24H12.4848V2.77333C12.4848 2.88 12.5293 2.98667 12.6182 3.09333C12.7071 3.2 12.8226 3.25333 12.9648 3.25333C13.1071 3.25333 13.2226 3.2 13.3115 3.09333C13.4004 2.98667 13.4448 2.88 13.4448 2.77333V2.24H14.8848C15.2048 2.24 15.4626 2.34667 15.6582 2.56C15.8537 2.77333 15.9515 3.02222 15.9515 3.30667V4.48H1.97818V3.30667C1.97818 3.02222 2.07595 2.77333 2.27151 2.56C2.46707 2.34667 2.72484 2.24 3.04484 2.24ZM14.8848 14.9867H3.04484C2.72484 14.9867 2.46707 14.8889 2.27151 14.6933C2.07595 14.4978 1.97818 14.24 1.97818 13.92V5.49333H15.9515V13.92C15.9515 14.24 15.8537 14.4978 15.6582 14.6933C15.4626 14.8889 15.2048 14.9867 14.8848 14.9867Z" fill="#BACCE1"/>
</g>
<defs>
<clipPath id="clip0_192_84">
<rect width="16.53" height="16" fill="white" transform="matrix(1 0 0 -1 0.700195 16)"/>
</clipPath>
</defs>
</svg>
