<svg width="18" height="16" viewBox="0 0 18 16" fill="none" xmlns="http://www.w3.org/2000/svg">
<g clip-path="url(#clip0_192_88)">
<path d="M9.12211 8.64002L12.1088 10.88C12.2154 10.9867 12.3399 11.0311 12.4821 11.0134C12.6243 10.9956 12.731 10.9245 12.8021 10.8C12.8732 10.6756 12.8999 10.5511 12.8821 10.4267C12.8643 10.3022 12.8021 10.1867 12.6954 10.08L9.92211 8.00002V3.73335C9.92211 3.59113 9.87767 3.47557 9.78878 3.38669C9.69989 3.2978 9.58433 3.25335 9.44211 3.25335C9.29989 3.25335 9.17544 3.2978 9.06878 3.38669C8.96211 3.47557 8.90878 3.59113 8.90878 3.73335V8.26669C8.90878 8.44446 8.97989 8.56891 9.12211 8.64002ZM9.65544 0.48002C8.48211 0.48002 7.36211 0.755575 6.29544 1.30669C5.22878 1.8578 4.33989 2.60446 3.62878 3.54669C2.91767 4.48891 2.47322 5.56446 2.29544 6.77335L2.08211 6.45335C2.011 6.34669 1.90433 6.28446 1.76211 6.26669C1.61989 6.24891 1.49544 6.27557 1.38878 6.34669C1.28211 6.4178 1.211 6.52446 1.17544 6.66669C1.13989 6.80891 1.17544 6.93335 1.28211 7.04002L2.24211 8.53335C2.34878 8.67557 2.47322 8.74669 2.61544 8.74669H2.66878C2.811 8.74669 2.93544 8.69335 3.04211 8.58669L4.26878 7.36002C4.37544 7.25335 4.42878 7.12891 4.42878 6.98669C4.42878 6.84446 4.37544 6.72891 4.26878 6.64002C4.16211 6.55113 4.04655 6.50669 3.92211 6.50669C3.79766 6.50669 3.68211 6.56002 3.57544 6.66669L3.25544 6.93335C3.43322 5.79558 3.89544 4.78224 4.64211 3.89335C5.38878 3.00446 6.29544 2.34669 7.36211 1.92002C8.42878 1.49335 9.54878 1.3778 10.7221 1.57335C11.8954 1.76891 12.9266 2.23113 13.8154 2.96002C14.7043 3.68891 15.3532 4.59557 15.7621 5.68002C16.171 6.76446 16.2866 7.89335 16.1088 9.06669C15.931 10.0978 15.5399 11.0222 14.9354 11.84C14.331 12.6578 13.5666 13.3067 12.6421 13.7867C11.7177 14.2667 10.7399 14.5067 9.70878 14.5067C8.67767 14.5067 7.70878 14.2845 6.80211 13.84C5.89544 13.3956 5.15767 12.7645 4.58878 11.9467C4.51766 11.84 4.411 11.7778 4.26878 11.76C4.12655 11.7422 4.00211 11.7689 3.89544 11.84C3.78878 11.9111 3.71766 12.0178 3.68211 12.16C3.64655 12.3022 3.68211 12.4267 3.78878 12.5334C4.46433 13.4934 5.32655 14.2311 6.37544 14.7467C7.42433 15.2622 8.51766 15.52 9.65544 15.52C11.0421 15.52 12.3043 15.1822 13.4421 14.5067C14.5799 13.8311 15.4866 12.9156 16.1621 11.76C16.8377 10.6045 17.1754 9.35113 17.1754 8.00002C17.1754 6.64891 16.8377 5.39557 16.1621 4.24002C15.4866 3.08446 14.5799 2.16891 13.4421 1.49335C12.3043 0.817797 11.0421 0.48002 9.65544 0.48002Z" fill="#BACCE1"/>
</g>
<defs>
<clipPath id="clip0_192_88">
<rect width="16.53" height="16" fill="white" transform="matrix(1 0 0 -1 0.910156 16)"/>
</clipPath>
</defs>
</svg>
