<svg width="20" height="20" viewBox="0 0 20 20" fill="none" xmlns="http://www.w3.org/2000/svg">
<g clip-path="url(#clip0_192_24)">
<path d="M8.26667 16.4667C6.75556 16.4667 5.36667 16.1 4.1 15.3667C2.83333 14.6333 1.83333 13.6333 1.1 12.3667C0.366667 11.1 0 9.72222 0 8.23333C0 6.74444 0.366667 5.36667 1.1 4.1C1.83333 2.83333 2.83333 1.83333 4.1 1.1C5.36667 0.366665 6.74444 -1.90735e-06 8.23333 -1.90735e-06C9.72222 -1.90735e-06 11.1 0.366665 12.3667 1.1C13.6333 1.83333 14.6333 2.83333 15.3667 4.1C16.1 5.36667 16.4667 6.74444 16.4667 8.23333C16.4667 9.72222 16.1 11.1 15.3667 12.3667C14.6333 13.6333 13.6333 14.6333 12.3667 15.3667C11.1 16.1 9.73333 16.4667 8.26667 16.4667ZM8.26667 1.53333C7.06667 1.53333 5.95556 1.83333 4.93333 2.43333C3.91111 3.03333 3.1 3.84444 2.5 4.86667C1.9 5.88889 1.6 7.01111 1.6 8.23333C1.6 9.45555 1.9 10.5778 2.5 11.6C3.1 12.6222 3.91111 13.4333 4.93333 14.0333C5.95556 14.6333 7.06667 14.9333 8.26667 14.9333C9.46667 14.9333 10.5778 14.6333 11.6 14.0333C12.6222 13.4333 13.4333 12.6222 14.0333 11.6C14.6333 10.5778 14.9333 9.45555 14.9333 8.23333C14.9333 7.01111 14.6333 5.88889 14.0333 4.86667C13.4333 3.84444 12.6222 3.03333 11.6 2.43333C10.5778 1.83333 9.46667 1.53333 8.26667 1.53333ZM19.7333 19.8C19.9111 19.6222 20 19.4222 20 19.2C20 18.9778 19.9111 18.8 19.7333 18.6667L16.2667 15.2C16.1333 15.0222 15.9556 14.9333 15.7333 14.9333C15.5111 14.9333 15.3222 15.0111 15.1667 15.1667C15.0111 15.3222 14.9333 15.5111 14.9333 15.7333C14.9333 15.9556 15 16.1333 15.1333 16.2667L18.6667 19.8C18.8 19.9333 18.9778 20 19.2 20C19.4222 20 19.6 19.9333 19.7333 19.8Z" fill="#183354"/>
</g>
<defs>
<clipPath id="clip0_192_24">
<rect width="20" height="20" fill="white" transform="matrix(1 0 0 -1 0 20)"/>
</clipPath>
</defs>
</svg>
